# xmcd CD database file
#
# Track frame offsets:
#	150
#	21980
#	56963
#	91933
#	119625
#	152880
#	184188
#	208985
#
# Disc length: 3251 seconds
#
# Revision: 2
# Processed by: cddbd v1.4PL0 Copyright (c) Steve Scherf et al.
# Submitted via: CDex 1.50beta10
#
DISCID=770cb108
DTITLE=Paul Mousavi - Sound Mind
DYEAR=1994
DGENRE=Jazz
TTITLE0=Billy's Blues
TTITLE1=Secret Love
TTITLE2=Where's Elvis
TTITLE3=The Real Guitarist
TTITLE4=The Inner Urge
TTITLE5=Nancy
TTITLE6=Straight No Chaser
TTITLE7=The Nineteenth Floor
EXTD=YEAR: 1994
EXTT0=
EXTT1=
EXTT2=
EXTT3=
EXTT4=
EXTT5=
EXTT6=
EXTT7=
PLAYORDER=
